<svg width="17" height="19" viewBox="0 0 17 19" fill="none" xmlns="http://www.w3.org/2000/svg">
<path d="M8.4598 1.8584C11.5435 1.8584 13.4779 2.41678 14.7322 3.66838C15.9865 4.91998 16.5456 6.85181 16.5456 9.93136C16.5456 13.0109 15.9865 14.9428 14.7322 16.1944C13.4779 17.446 11.5435 18.0043 8.4598 18.0043C5.37611 18.0043 3.44168 17.446 2.1884 16.1944C0.935127 14.9428 0.375 13.0109 0.375 9.93136C0.375 6.85181 0.934127 4.91998 2.1884 3.66838C3.44268 2.41678 5.37611 1.8584 8.4598 1.8584ZM8.4598 16.8077C13.736 16.8077 15.3453 15.2015 15.3453 9.93236C15.3453 4.66326 13.737 3.05707 8.4598 3.05707C3.18263 3.05707 1.57528 4.66326 1.57528 9.93236C1.57528 15.2015 3.18363 16.8087 8.4598 16.8087V16.8077Z" fill="#9397A0"/>
<path d="M15.731 7.75177H1.19778C1.03861 7.75177 0.885977 7.68854 0.773431 7.57602C0.660884 7.4635 0.597656 7.31089 0.597656 7.15176C0.597656 6.99263 0.660884 6.84003 0.773431 6.72751C0.885977 6.61499 1.03861 6.55176 1.19778 6.55176H15.731C15.8902 6.55176 16.0428 6.61499 16.1554 6.72751C16.2679 6.84003 16.3311 6.99263 16.3311 7.15176C16.3311 7.31089 16.2679 7.4635 16.1554 7.57602C16.0428 7.68854 15.8902 7.75177 15.731 7.75177Z" fill="#9397A0"/>
<path d="M12.0212 10.9256H12.0142C11.855 10.9256 11.7024 10.8624 11.5898 10.7498C11.4773 10.6373 11.4141 10.4847 11.4141 10.3256C11.4141 10.1664 11.4773 10.0138 11.5898 9.90131C11.7024 9.78878 11.855 9.72559 12.0142 9.72559H12.0212C12.1804 9.72559 12.333 9.78878 12.4456 9.90131C12.5581 10.0138 12.6213 10.1664 12.6213 10.3256C12.6213 10.4847 12.5581 10.6373 12.4456 10.7498C12.333 10.8624 12.1804 10.9256 12.0212 10.9256Z" fill="#9397A0"/>
<path d="M8.47822 10.9256H8.47123C8.31207 10.9256 8.15941 10.8624 8.04687 10.7498C7.93432 10.6373 7.87109 10.4847 7.87109 10.3256C7.87109 10.1664 7.93432 10.0138 8.04687 9.90131C8.15941 9.78878 8.31207 9.72559 8.47123 9.72559H8.47822C8.63739 9.72559 8.79004 9.78878 8.90259 9.90131C9.01513 10.0138 9.07836 10.1664 9.07836 10.3256C9.07836 10.4847 9.01513 10.6373 8.90259 10.7498C8.79004 10.8624 8.63739 10.9256 8.47822 10.9256Z" fill="#9397A0"/>
<path d="M4.91574 10.9256H4.90873C4.74957 10.9256 4.59691 10.8624 4.48437 10.7498C4.37182 10.6373 4.30859 10.4847 4.30859 10.3256C4.30859 10.1664 4.37182 10.0138 4.48437 9.90131C4.59691 9.78878 4.74957 9.72559 4.90873 9.72559H4.91574C5.0749 9.72559 5.22754 9.78878 5.34009 9.90131C5.45263 10.0138 5.51586 10.1664 5.51586 10.3256C5.51586 10.4847 5.45263 10.6373 5.34009 10.7498C5.22754 10.8624 5.0749 10.9256 4.91574 10.9256Z" fill="#9397A0"/>
<path d="M12.0212 14.0301H12.0142C11.855 14.0301 11.7024 13.9669 11.5898 13.8543C11.4773 13.7418 11.4141 13.5892 11.4141 13.4301C11.4141 13.271 11.4773 13.1183 11.5898 13.0058C11.7024 12.8933 11.855 12.8301 12.0142 12.8301H12.0212C12.1804 12.8301 12.333 12.8933 12.4456 13.0058C12.5581 13.1183 12.6213 13.271 12.6213 13.4301C12.6213 13.5892 12.5581 13.7418 12.4456 13.8543C12.333 13.9669 12.1804 14.0301 12.0212 14.0301Z" fill="#9397A0"/>
<path d="M8.47822 14.0301H8.47123C8.31207 14.0301 8.15941 13.9669 8.04687 13.8543C7.93432 13.7418 7.87109 13.5892 7.87109 13.4301C7.87109 13.271 7.93432 13.1183 8.04687 13.0058C8.15941 12.8933 8.31207 12.8301 8.47123 12.8301H8.47822C8.63739 12.8301 8.79004 12.8933 8.90259 13.0058C9.01513 13.1183 9.07836 13.271 9.07836 13.4301C9.07836 13.5892 9.01513 13.7418 8.90259 13.8543C8.79004 13.9669 8.63739 14.0301 8.47822 14.0301Z" fill="#9397A0"/>
<path d="M4.91574 14.0301H4.90873C4.74957 14.0301 4.59691 13.9669 4.48437 13.8543C4.37182 13.7418 4.30859 13.5892 4.30859 13.4301C4.30859 13.271 4.37182 13.1183 4.48437 13.0058C4.59691 12.8933 4.74957 12.8301 4.90873 12.8301H4.91574C5.0749 12.8301 5.22754 12.8933 5.34009 13.0058C5.45263 13.1183 5.51586 13.271 5.51586 13.4301C5.51586 13.5892 5.45263 13.7418 5.34009 13.8543C5.22754 13.9669 5.0749 14.0301 4.91574 14.0301Z" fill="#9397A0"/>
<path d="M11.6978 4.51717C11.5386 4.51717 11.386 4.45401 11.2734 4.34161C11.1609 4.22922 11.0977 4.07678 11.0977 3.91783V1.28876C11.0977 1.12981 11.1609 0.977373 11.2734 0.864977C11.386 0.752581 11.5386 0.689453 11.6978 0.689453C11.857 0.689453 12.0096 0.752581 12.1221 0.864977C12.2347 0.977373 12.2979 1.12981 12.2979 1.28876V3.91783C12.2979 4.07678 12.2347 4.22922 12.1221 4.34161C12.0096 4.45401 11.857 4.51717 11.6978 4.51717Z" fill="#9397A0"/>
<path d="M5.23294 4.51717C5.07377 4.51717 4.92113 4.45401 4.80859 4.34161C4.69604 4.22922 4.63281 4.07678 4.63281 3.91783V1.28876C4.63281 1.21005 4.64833 1.13214 4.67849 1.05943C4.70865 0.986717 4.75286 0.92063 4.80859 0.864977C4.86431 0.809324 4.93047 0.765175 5.00329 0.735056C5.0761 0.704937 5.15413 0.689453 5.23294 0.689453C5.31175 0.689453 5.38979 0.704937 5.4626 0.735056C5.53541 0.765175 5.60157 0.809324 5.6573 0.864977C5.71303 0.92063 5.75724 0.986717 5.7874 1.05943C5.81755 1.13214 5.83307 1.21005 5.83307 1.28876V3.91783C5.83307 4.07678 5.76985 4.22922 5.6573 4.34161C5.54475 4.45401 5.3921 4.51717 5.23294 4.51717Z" fill="#9397A0"/>
</svg>
