<svg id="visual" viewBox="0 0 900 600" width="900" height="600" xmlns="http://www.w3.org/2000/svg" xmlns:xlink="http://www.w3.org/1999/xlink" version="1.1"><rect x="0" y="0" width="900" height="600" fill="#503262"></rect><path d="M794 0L807 33.3C820 66.7 846 133.3 851 200C856 266.7 840 333.3 828.7 400C817.3 466.7 810.7 533.3 807.3 566.7L804 600L0 600L0 566.7C0 533.3 0 466.7 0 400C0 333.3 0 266.7 0 200C0 133.3 0 66.7 0 33.3L0 0Z" fill="#2b1a35"></path><path d="M811 0L805.5 33.3C800 66.7 789 133.3 773.8 200C758.7 266.7 739.3 333.3 734.3 400C729.3 466.7 738.7 533.3 743.3 566.7L748 600L0 600L0 566.7C0 533.3 0 466.7 0 400C0 333.3 0 266.7 0 200C0 133.3 0 66.7 0 33.3L0 0Z" fill="#3d264b"></path><path d="M706 0L693.3 33.3C680.7 66.7 655.3 133.3 658.3 200C661.3 266.7 692.7 333.3 693.2 400C693.7 466.7 663.3 533.3 648.2 566.7L633 600L0 600L0 566.7C0 533.3 0 466.7 0 400C0 333.3 0 266.7 0 200C0 133.3 0 66.7 0 33.3L0 0Z" fill="#503262"></path><path d="M599 0L607.2 33.3C615.3 66.7 631.7 133.3 628.3 200C625 266.7 602 333.3 591.3 400C580.7 466.7 582.3 533.3 583.2 566.7L584 600L0 600L0 566.7C0 533.3 0 466.7 0 400C0 333.3 0 266.7 0 200C0 133.3 0 66.7 0 33.3L0 0Z" fill="#643e7a"></path><path d="M488 0L504.2 33.3C520.3 66.7 552.7 133.3 573 200C593.3 266.7 601.7 333.3 589.2 400C576.7 466.7 543.3 533.3 526.7 566.7L510 600L0 600L0 566.7C0 533.3 0 466.7 0 400C0 333.3 0 266.7 0 200C0 133.3 0 66.7 0 33.3L0 0Z" fill="#794c93"></path><path d="M504 0L494 33.3C484 66.7 464 133.3 472.2 200C480.3 266.7 516.7 333.3 534.2 400C551.7 466.7 550.3 533.3 549.7 566.7L549 600L0 600L0 566.7C0 533.3 0 466.7 0 400C0 333.3 0 266.7 0 200C0 133.3 0 66.7 0 33.3L0 0Z" fill="#81519d"></path><path d="M474 0L474.8 33.3C475.7 66.7 477.3 133.3 475.3 200C473.3 266.7 467.7 333.3 449.2 400C430.7 466.7 399.3 533.3 383.7 566.7L368 600L0 600L0 566.7C0 533.3 0 466.7 0 400C0 333.3 0 266.7 0 200C0 133.3 0 66.7 0 33.3L0 0Z" fill="#81519d"></path><path d="M350 0L351 33.3C352 66.7 354 133.3 346.8 200C339.7 266.7 323.3 333.3 323.7 400C324 466.7 341 533.3 349.5 566.7L358 600L0 600L0 566.7C0 533.3 0 466.7 0 400C0 333.3 0 266.7 0 200C0 133.3 0 66.7 0 33.3L0 0Z" fill="#794c93"></path><path d="M342 0L329.8 33.3C317.7 66.7 293.3 133.3 289.3 200C285.3 266.7 301.7 333.3 311.2 400C320.7 466.7 323.3 533.3 324.7 566.7L326 600L0 600L0 566.7C0 533.3 0 466.7 0 400C0 333.3 0 266.7 0 200C0 133.3 0 66.7 0 33.3L0 0Z" fill="#643e7a"></path><path d="M271 0L263 33.3C255 66.7 239 133.3 223.8 200C208.7 266.7 194.3 333.3 191.7 400C189 466.7 198 533.3 202.5 566.7L207 600L0 600L0 566.7C0 533.3 0 466.7 0 400C0 333.3 0 266.7 0 200C0 133.3 0 66.7 0 33.3L0 0Z" fill="#503262"></path><path d="M150 0L140.7 33.3C131.3 66.7 112.7 133.3 113.2 200C113.7 266.7 133.3 333.3 133.2 400C133 466.7 113 533.3 103 566.7L93 600L0 600L0 566.7C0 533.3 0 466.7 0 400C0 333.3 0 266.7 0 200C0 133.3 0 66.7 0 33.3L0 0Z" fill="#3d264b"></path><path d="M73 0L63.2 33.3C53.3 66.7 33.7 133.3 40.5 200C47.3 266.7 80.7 333.3 88.5 400C96.3 466.7 78.7 533.3 69.8 566.7L61 600L0 600L0 566.7C0 533.3 0 466.7 0 400C0 333.3 0 266.7 0 200C0 133.3 0 66.7 0 33.3L0 0Z" fill="#2b1a35"></path></svg>