<svg id="visual" viewBox="0 0 900 600" width="900" height="600" xmlns="http://www.w3.org/2000/svg" xmlns:xlink="http://www.w3.org/1999/xlink" version="1.1"><rect x="0" y="0" width="900" height="600" fill="#ffffff"></rect><path d="M0 418L75 399.5C150 381 300 344 450 321.7C600 299.3 750 291.7 825 287.8L900 284L900 601L825 601C750 601 600 601 450 601C300 601 150 601 75 601L0 601Z" fill="#480ed0"></path><path d="M0 66L75 81.8C150 97.7 300 129.3 450 131C600 132.7 750 104.3 825 90.2L900 76L900 601L825 601C750 601 600 601 450 601C300 601 150 601 75 601L0 601Z" fill="#3e16c5"></path><path d="M0 397L75 376.7C150 356.3 300 315.7 450 343C600 370.3 750 465.7 825 513.3L900 561L900 601L825 601C750 601 600 601 450 601C300 601 150 601 75 601L0 601Z" fill="#341bba"></path><path d="M0 357L75 347.2C150 337.3 300 317.7 450 286.5C600 255.3 750 212.7 825 191.3L900 170L900 601L825 601C750 601 600 601 450 601C300 601 150 601 75 601L0 601Z" fill="#2a1daf"></path><path d="M0 479L75 459.3C150 439.7 300 400.3 450 356.7C600 313 750 265 825 241L900 217L900 601L825 601C750 601 600 601 450 601C300 601 150 601 75 601L0 601Z" fill="#221fa4"></path><path d="M0 554L75 530.3C150 506.7 300 459.3 450 436.5C600 413.7 750 415.3 825 416.2L900 417L900 601L825 601C750 601 600 601 450 601C300 601 150 601 75 601L0 601Z" fill="#1a2099"></path><path d="M0 533L75 507.8C150 482.7 300 432.3 450 395.5C600 358.7 750 335.3 825 323.7L900 312L900 601L825 601C750 601 600 601 450 601C300 601 150 601 75 601L0 601Z" fill="#13208e"></path><path d="M0 548L75 529.5C150 511 300 474 450 458C600 442 750 447 825 449.5L900 452L900 601L825 601C750 601 600 601 450 601C300 601 150 601 75 601L0 601Z" fill="#0e2082"></path><path d="M0 465L75 461.7C150 458.3 300 451.7 450 464C600 476.3 750 507.7 825 523.3L900 539L900 601L825 601C750 601 600 601 450 601C300 601 150 601 75 601L0 601Z" fill="#0a1f77"></path><path d="M0 508L75 502.3C150 496.7 300 485.3 450 493C600 500.7 750 527.3 825 540.7L900 554L900 601L825 601C750 601 600 601 450 601C300 601 150 601 75 601L0 601Z" fill="#091d6b"></path><path d="M0 562L75 553.2C150 544.3 300 526.7 450 524.2C600 521.7 750 534.3 825 540.7L900 547L900 601L825 601C750 601 600 601 450 601C300 601 150 601 75 601L0 601Z" fill="#091c60"></path></svg>