<svg width="52" height="52" viewBox="0 0 52 52" fill="none" xmlns="http://www.w3.org/2000/svg">
<circle cx="26" cy="26" r="26" fill="#1769FF"/>
<path d="M19.4758 15.6001C20.3748 15.6001 21.2052 15.6686 21.9672 15.8741C22.7292 16.0111 23.3542 16.2936 23.9107 16.6361C24.4673 16.9785 24.8782 17.4665 25.1608 18.0916C25.4347 18.7166 25.5803 19.4785 25.5803 20.309C25.5803 21.2765 25.3748 22.107 24.8868 22.732C24.4673 23.357 23.7823 23.9135 22.9433 24.3245C24.1248 24.6669 25.0238 25.2919 25.5717 26.1224C26.1197 26.9529 26.4707 27.9889 26.4707 29.1704C26.4707 30.1379 26.2652 30.9683 25.9142 31.6618C25.5717 32.3553 25.0152 32.9803 24.3902 33.3913C23.7652 33.8108 23.0032 34.1533 22.1727 34.3588C21.3422 34.5643 20.5118 34.7012 19.6813 34.7012L10.4004 34.7184V15.6001H19.4758ZM18.9193 23.357C19.6813 23.357 20.3063 23.1515 20.7857 22.8005C21.2652 22.4495 21.4792 21.833 21.4792 21.071C21.4792 20.6515 21.4107 20.2405 21.2737 19.9666C21.1368 19.6926 20.9313 19.4785 20.6487 19.2731C20.3748 19.1361 20.0922 18.9991 19.7498 18.9306C19.4073 18.8621 19.0563 18.8621 18.6453 18.8621H14.6299V23.3656C14.6299 23.357 18.9193 23.357 18.9193 23.357ZM19.1248 31.5334C19.5443 31.5334 19.9552 31.4649 20.3063 31.3964C20.6487 31.3279 20.9998 31.1909 21.2737 30.9769C21.5477 30.7629 21.7618 30.5574 21.9672 30.2149C22.1042 29.8724 22.2412 29.4529 22.2412 28.9649C22.2412 27.9974 21.9672 27.3039 21.4107 26.8159C20.8542 26.3964 20.0922 26.1909 19.1933 26.1909H14.6299V31.5248H19.1248V31.5334Z" fill="white"/>
<path d="M32.4986 31.4648C33.0551 32.0213 33.8856 32.2953 34.9901 32.2953C35.7521 32.2953 36.4456 32.0898 37.0021 31.7388C37.5586 31.3192 37.901 30.9083 38.038 30.4887H41.4285C40.8719 32.1497 40.0415 33.3312 38.937 34.0932C37.8325 34.7867 36.514 35.1977 34.9216 35.1977C33.8171 35.1977 32.8411 34.9922 31.9421 34.6412C31.0431 34.2987 30.3496 33.8107 29.7246 33.1172C29.0996 32.4922 28.6202 31.7302 28.3376 30.8312C27.9952 29.9322 27.8496 28.9648 27.8496 27.8517C27.8496 26.8158 27.9866 25.8397 28.3376 24.9408C28.6887 24.0418 29.1681 23.2798 29.7931 22.5863C30.4181 21.9613 31.1801 21.4048 32.0106 21.0623C32.9096 20.7198 33.8085 20.5058 34.9216 20.5058C36.1031 20.5058 37.139 20.7113 38.038 21.1993C38.937 21.6873 39.6305 22.2353 40.187 23.0658C40.7435 23.8277 41.1545 24.7267 41.437 25.6942C41.574 26.6617 41.6425 27.6377 41.574 28.7422H31.5311C31.5311 29.8723 31.9421 30.9083 32.4986 31.4648ZM36.8651 24.1873C36.3771 23.6993 35.6151 23.4253 34.7161 23.4253C34.0911 23.4253 33.6116 23.5623 33.1921 23.7678C32.7726 23.9733 32.4986 24.2558 32.2246 24.5298C31.9507 24.8038 31.8051 25.1548 31.7366 25.4973C31.6681 25.8397 31.5996 26.1223 31.5996 26.3963H37.8325C37.6956 25.3688 37.3445 24.6754 36.8651 24.1873ZM30.7691 16.9185H38.526V18.7849H30.7691V16.9185Z" fill="white"/>
</svg>
