<svg width="53" height="53" viewBox="0 0 53 53" fill="none" xmlns="http://www.w3.org/2000/svg">
<circle cx="26.5" cy="26.5" r="26.25" fill="#181717"/>
<path d="M3.94336 39.9335C7.13882 45.2868 12.1865 49.4065 18.202 51.4092C19.5154 51.6493 19.994 50.8387 19.994 50.1426C19.994 49.8544 19.9891 49.3451 19.9827 48.6636C19.9751 47.8743 19.9654 46.8541 19.9585 45.6788C12.657 47.2645 11.1164 42.1594 11.1164 42.1594C9.92231 39.1282 8.20126 38.3208 8.20126 38.3208C5.8179 36.6917 8.38174 36.7239 8.38174 36.7239C11.0165 36.9108 12.4024 39.4295 12.4024 39.4295C14.7438 43.4405 18.5469 42.2818 20.0423 41.6115C20.2808 39.9146 20.9576 38.7576 21.7086 38.1017C15.8799 37.4394 9.75149 35.1865 9.75149 25.1278C9.75149 22.2626 10.7748 19.9195 12.4539 18.084C12.1832 17.4201 11.2824 14.7515 12.7101 11.137C12.7101 11.137 14.9146 10.4312 19.9295 13.8282C22.0228 13.2464 24.2692 12.9547 26.5011 12.9451C28.7297 12.9547 30.9761 13.2464 33.0726 13.8282C38.0843 10.4312 40.284 11.137 40.284 11.137C41.7166 14.7515 40.8157 17.4201 40.545 18.084C42.2274 19.9195 43.2442 22.2626 43.2442 25.1278C43.2442 35.2123 37.1061 37.4313 31.2581 38.0807C32.2008 38.8913 33.0404 40.4931 33.0404 42.9425C33.0404 45.2887 33.026 47.3322 33.0165 48.6859C33.0117 49.3563 33.0082 49.8575 33.0082 50.1426C33.0082 50.8452 33.4803 51.6622 34.813 51.406C39.6052 49.8064 43.7824 46.864 46.8973 43.0248C42.0845 48.9579 34.7352 52.7499 26.5003 52.7499C16.912 52.7499 8.52438 47.6091 3.94336 39.9335Z" fill="white"/>
</svg>
