<svg width="53" height="53" viewBox="0 0 53 53" fill="none" xmlns="http://www.w3.org/2000/svg">
<circle cx="26.5" cy="26.5" r="26.25" fill="#0077B5"/>
<path fill-rule="evenodd" clip-rule="evenodd" d="M19.6419 13.7476C19.6419 15.3818 18.3976 16.7043 16.4517 16.7043C14.5817 16.7043 13.3374 15.3818 13.3759 13.7476C13.3374 12.034 14.5816 10.75 16.489 10.75C18.3975 10.75 19.6046 12.034 19.6419 13.7476ZM13.5323 38.075V19.04H19.4481V38.0738H13.5323V38.075Z" fill="white"/>
<path fill-rule="evenodd" clip-rule="evenodd" d="M24.1896 25.1147C24.1896 22.7404 24.1114 20.7163 24.0332 19.0424H29.1716L29.4448 21.6501H29.5615C30.3401 20.4432 32.286 18.6152 35.4388 18.6152C39.3305 18.6152 42.2499 21.1844 42.2499 26.7873V38.0774H36.3341V27.5286C36.3341 25.0749 35.4785 23.4023 33.3377 23.4023C31.7023 23.4023 30.73 24.531 30.3413 25.6201C30.1849 26.01 30.1079 26.5539 30.1079 27.1002V38.0774H24.192V25.1147H24.1896Z" fill="white"/>
</svg>
