<svg width="26" height="29" viewBox="0 0 26 29" fill="none" xmlns="http://www.w3.org/2000/svg">
<path d="M1.23821 16.4278C1.77116 12.7381 4.93322 10 8.66117 10H17.3388C21.0668 10 24.2288 12.7381 24.7618 16.4278C25.415 20.9497 21.9076 25 17.3388 25H8.66117C4.09235 25 0.585046 20.9497 1.23821 16.4278Z" fill="url(#paint0_linear_1333_1167)"/>
<g filter="url(#filter0_b_1333_1167)">
<circle cx="13" cy="7" r="7" fill="#BFB5FF" fill-opacity="0.6"/>
<circle cx="13" cy="7" r="6.69405" stroke="url(#paint1_linear_1333_1167)" stroke-width="0.611895"/>
</g>
<g filter="url(#filter1_b_1333_1167)">
<path d="M2 23.4286C2 26.5056 4.49441 29 7.57143 29L19.4286 29C22.5056 29 25 26.5056 25 23.4286C25 19.3259 21.6719 16 17.5692 16C14.6456 16 12.3544 16 9.43076 16C5.32808 16 2 19.3259 2 23.4286Z" fill="#BFB5FF" fill-opacity="0.6"/>
<path d="M2.30595 23.4286C2.30595 26.3366 4.66338 28.6941 7.57143 28.6941L19.4286 28.6941C22.3366 28.6941 24.6941 26.3366 24.6941 23.4286C24.6941 19.495 21.5031 16.3059 17.5692 16.3059L17.5521 16.3059L17.535 16.3059L17.5179 16.3059L17.5008 16.3059L17.4838 16.3059L17.4667 16.3059L17.4497 16.3059L17.4327 16.3059L17.4156 16.3059L17.3986 16.3059L17.3817 16.3059L17.3647 16.3059L17.3477 16.3059L17.3308 16.3059L17.3139 16.3059L17.297 16.3059L17.2801 16.3059L17.2632 16.3059L17.2463 16.3059L17.2294 16.3059L17.2126 16.3059L17.1958 16.3059L17.1789 16.3059L17.1621 16.3059L17.1453 16.3059L17.1286 16.3059L17.1118 16.3059L17.095 16.3059L17.0783 16.3059L17.0616 16.3059L17.0449 16.3059L17.0282 16.3059L17.0115 16.3059L16.9948 16.3059L16.9781 16.3059L16.9615 16.3059L16.9448 16.3059L16.9282 16.3059L16.9116 16.3059L16.895 16.3059L16.8784 16.3059L16.8618 16.3059L16.8452 16.3059L16.8287 16.3059L16.8121 16.3059L16.7956 16.3059L16.7791 16.3059L16.7626 16.3059L16.7461 16.3059L16.7296 16.3059L16.7131 16.3059L16.6967 16.3059L16.6802 16.3059L16.6638 16.3059L16.6474 16.3059L16.631 16.3059L16.6146 16.3059L16.5982 16.3059L16.5818 16.3059L16.5654 16.3059L16.5491 16.3059L16.5327 16.3059L16.5164 16.3059L16.5 16.3059L16.4837 16.3059L16.4674 16.3059L16.4511 16.3059L16.4348 16.3059L16.4186 16.3059L16.4023 16.3059L16.3861 16.3059L16.3698 16.3059L16.3536 16.3059L16.3374 16.3059L16.3212 16.3059L16.305 16.3059L16.2888 16.3059L16.2726 16.3059L16.2564 16.3059L16.2403 16.3059L16.2241 16.3059L16.208 16.3059L16.1919 16.3059L16.1757 16.3059L16.1596 16.3059L16.1435 16.3059L16.1274 16.3059L16.1114 16.3059L16.0953 16.3059L16.0792 16.3059L16.0632 16.3059L16.0471 16.3059L16.0311 16.3059L16.0151 16.3059L15.9991 16.3059L15.983 16.3059L15.9671 16.3059L15.9511 16.3059L15.9351 16.3059L15.9191 16.3059L15.9032 16.3059L15.8872 16.3059L15.8713 16.3059L15.8553 16.3059L15.8394 16.3059L15.8235 16.3059L15.8076 16.3059L15.7917 16.3059L15.7758 16.3059L15.7599 16.3059L15.744 16.3059L15.7281 16.3059L15.7123 16.3059L15.6964 16.3059L15.6806 16.3059L15.6647 16.3059L15.6489 16.3059L15.6331 16.3059L15.6173 16.3059L15.6015 16.3059L15.5857 16.3059L15.5699 16.3059L15.5541 16.3059L15.5383 16.3059L15.5226 16.3059L15.5068 16.3059L15.4911 16.3059L15.4753 16.3059L15.4596 16.3059L15.4439 16.3059L15.4281 16.3059L15.4124 16.3059L15.3967 16.3059L15.381 16.3059L15.3653 16.3059L15.3496 16.3059L15.3339 16.3059L15.3183 16.3059L15.3026 16.3059L15.2869 16.3059L15.2713 16.3059L15.2556 16.3059L15.24 16.3059L15.2244 16.3059L15.2087 16.3059L15.1931 16.3059L15.1775 16.3059L15.1619 16.3059L15.1463 16.3059L15.1307 16.3059L15.1151 16.3059L15.0995 16.3059L15.0839 16.3059L15.0683 16.3059L15.0528 16.3059L15.0372 16.3059L15.0216 16.3059L15.0061 16.3059L14.9905 16.3059L14.975 16.3059L14.9595 16.3059L14.9439 16.3059L14.9284 16.3059L14.9129 16.3059L14.8974 16.3059L14.8819 16.3059L14.8664 16.3059L14.8509 16.3059L14.8354 16.3059L14.8199 16.3059L14.8044 16.3059L14.7889 16.3059L14.7734 16.3059L14.758 16.3059L14.7425 16.3059L14.727 16.3059L14.7116 16.3059L14.6961 16.3059L14.6807 16.3059L14.6652 16.3059L14.6498 16.3059L14.6344 16.3059L14.6189 16.3059L14.6035 16.3059L14.5881 16.3059L14.5727 16.3059L14.5573 16.3059L14.5419 16.3059L14.5264 16.3059L14.511 16.3059L14.4956 16.3059L14.4802 16.3059L14.4649 16.3059L14.4495 16.3059L14.4341 16.3059L14.4187 16.3059L14.4033 16.3059L14.3879 16.3059L14.3726 16.3059L14.3572 16.3059L14.3418 16.3059L14.3265 16.3059L14.3111 16.3059L14.2958 16.3059L14.2804 16.3059L14.2651 16.3059L14.2497 16.3059L14.2344 16.3059L14.219 16.3059L14.2037 16.3059L14.1884 16.3059L14.173 16.3059L14.1577 16.3059L14.1424 16.3059L14.127 16.3059L14.1117 16.3059L14.0964 16.3059L14.0811 16.3059L14.0658 16.3059L14.0504 16.3059L14.0351 16.3059L14.0198 16.3059L14.0045 16.3059L13.9892 16.3059L13.9739 16.3059L13.9586 16.3059L13.9433 16.3059L13.928 16.3059L13.9127 16.3059L13.8974 16.3059L13.8821 16.3059L13.8668 16.3059L13.8515 16.3059L13.8362 16.3059L13.8209 16.3059L13.8056 16.3059L13.7903 16.3059L13.7751 16.3059L13.7598 16.3059L13.7445 16.3059L13.7292 16.3059L13.7139 16.3059L13.6986 16.3059L13.6834 16.3059L13.6681 16.3059L13.6528 16.3059L13.6375 16.3059L13.6222 16.3059L13.6069 16.3059L13.5917 16.3059L13.5764 16.3059L13.5611 16.3059L13.5458 16.3059L13.5306 16.3059L13.5153 16.3059L13.5 16.3059L13.4847 16.3059L13.4694 16.3059L13.4542 16.3059L13.4389 16.3059L13.4236 16.3059L13.4083 16.3059L13.3931 16.3059L13.3778 16.3059L13.3625 16.3059L13.3472 16.3059L13.3319 16.3059L13.3167 16.3059L13.3014 16.3059L13.2861 16.3059L13.2708 16.3059L13.2555 16.3059L13.2402 16.3059L13.2249 16.3059L13.2097 16.3059L13.1944 16.3059L13.1791 16.3059L13.1638 16.3059L13.1485 16.3059L13.1332 16.3059L13.1179 16.3059L13.1026 16.3059L13.0873 16.3059L13.072 16.3059L13.0567 16.3059L13.0414 16.3059L13.0261 16.3059L13.0108 16.3059L12.9955 16.3059L12.9802 16.3059L12.9649 16.3059L12.9496 16.3059L12.9342 16.3059L12.9189 16.3059L12.9036 16.3059L12.8883 16.3059L12.873 16.3059L12.8576 16.3059L12.8423 16.3059L12.827 16.3059L12.8116 16.3059L12.7963 16.3059L12.781 16.3059L12.7656 16.3059L12.7503 16.3059L12.7349 16.3059L12.7196 16.3059L12.7042 16.3059L12.6889 16.3059L12.6735 16.3059L12.6582 16.3059L12.6428 16.3059L12.6274 16.3059L12.6121 16.3059L12.5967 16.3059L12.5813 16.3059L12.5659 16.3059L12.5505 16.3059L12.5351 16.3059L12.5198 16.3059L12.5044 16.3059L12.489 16.3059L12.4736 16.3059L12.4582 16.3059L12.4427 16.3059L12.4273 16.3059L12.4119 16.3059L12.3965 16.3059L12.3811 16.3059L12.3656 16.3059L12.3502 16.3059L12.3348 16.3059L12.3193 16.3059L12.3039 16.3059L12.2884 16.3059L12.273 16.3059L12.2575 16.3059L12.242 16.3059L12.2266 16.3059L12.2111 16.3059L12.1956 16.3059L12.1801 16.3059L12.1646 16.3059L12.1491 16.3059L12.1336 16.3059L12.1181 16.3059L12.1026 16.3059L12.0871 16.3059L12.0716 16.3059L12.0561 16.3059L12.0405 16.3059L12.025 16.3059L12.0095 16.3059L11.9939 16.3059L11.9784 16.3059L11.9628 16.3059L11.9472 16.3059L11.9317 16.3059L11.9161 16.3059L11.9005 16.3059L11.8849 16.3059L11.8693 16.3059L11.8537 16.3059L11.8381 16.3059L11.8225 16.3059L11.8069 16.3059L11.7913 16.3059L11.7757 16.3059L11.76 16.3059L11.7444 16.3059L11.7287 16.3059L11.7131 16.3059L11.6974 16.3059L11.6817 16.3059L11.6661 16.3059L11.6504 16.3059L11.6347 16.3059L11.619 16.3059L11.6033 16.3059L11.5876 16.3059L11.5719 16.3059L11.5562 16.3059L11.5404 16.3059L11.5247 16.3059L11.5089 16.3059L11.4932 16.3059L11.4774 16.3059L11.4617 16.3059L11.4459 16.3059L11.4301 16.3059L11.4143 16.3059L11.3985 16.3059L11.3827 16.3059L11.3669 16.3059L11.3511 16.3059L11.3353 16.3059L11.3194 16.3059L11.3036 16.3059L11.2877 16.3059L11.2719 16.3059L11.256 16.3059L11.2401 16.3059L11.2242 16.3059L11.2083 16.3059L11.1924 16.3059L11.1765 16.3059L11.1606 16.3059L11.1447 16.3059L11.1287 16.3059L11.1128 16.3059L11.0969 16.3059L11.0809 16.3059L11.0649 16.3059L11.0489 16.3059L11.033 16.3059L11.017 16.3059L11.0009 16.3059L10.9849 16.3059L10.9689 16.3059L10.9529 16.3059L10.9368 16.3059L10.9208 16.3059L10.9047 16.3059L10.8886 16.3059L10.8726 16.3059L10.8565 16.3059L10.8404 16.3059L10.8243 16.3059L10.8081 16.3059L10.792 16.3059L10.7759 16.3059L10.7597 16.3059L10.7436 16.3059L10.7274 16.3059L10.7112 16.3059L10.695 16.3059L10.6788 16.3059L10.6626 16.3059L10.6464 16.3059L10.6302 16.3059L10.6139 16.3059L10.5977 16.3059L10.5814 16.3059L10.5652 16.3059L10.5489 16.3059L10.5326 16.3059L10.5163 16.3059L10.5 16.3059L10.4836 16.3059L10.4673 16.3059L10.451 16.3059L10.4346 16.3059L10.4182 16.3059L10.4018 16.3059L10.3855 16.3059L10.369 16.3059L10.3526 16.3059L10.3362 16.3059L10.3198 16.3059L10.3033 16.3059L10.2869 16.3059L10.2704 16.3059L10.2539 16.3059L10.2374 16.3059L10.2209 16.3059L10.2044 16.3059L10.1879 16.3059L10.1713 16.3059L10.1548 16.3059L10.1382 16.3059L10.1216 16.3059L10.105 16.3059L10.0884 16.3059L10.0718 16.3059L10.0552 16.3059L10.0385 16.3059L10.0219 16.3059L10.0052 16.3059L9.98854 16.3059L9.97185 16.3059L9.95514 16.3059L9.93843 16.3059L9.9217 16.3059L9.90496 16.3059L9.88821 16.3059L9.87144 16.3059L9.85466 16.3059L9.83787 16.3059L9.82106 16.3059L9.80424 16.3059L9.78741 16.3059L9.77056 16.3059L9.7537 16.3059L9.73683 16.3059L9.71994 16.3059L9.70304 16.3059L9.68613 16.3059L9.6692 16.3059L9.65226 16.3059L9.63531 16.3059L9.61834 16.3059L9.60136 16.3059L9.58436 16.3059L9.56735 16.3059L9.55033 16.3059L9.53329 16.3059L9.51624 16.3059L9.49917 16.3059L9.48209 16.3059L9.465 16.3059L9.44789 16.3059L9.43076 16.3059C5.49693 16.3059 2.30595 19.495 2.30595 23.4286Z" stroke="url(#paint2_linear_1333_1167)" stroke-width="0.611895"/>
</g>
<defs>
<filter id="filter0_b_1333_1167" x="-6.64845" y="-12.6485" width="39.2969" height="39.2969" filterUnits="userSpaceOnUse" color-interpolation-filters="sRGB">
<feFlood flood-opacity="0" result="BackgroundImageFix"/>
<feGaussianBlur in="BackgroundImageFix" stdDeviation="6.32423"/>
<feComposite in2="SourceAlpha" operator="in" result="effect1_backgroundBlur_1333_1167"/>
<feBlend mode="normal" in="SourceGraphic" in2="effect1_backgroundBlur_1333_1167" result="shape"/>
</filter>
<filter id="filter1_b_1333_1167" x="-11.8566" y="2.14337" width="50.7133" height="40.7133" filterUnits="userSpaceOnUse" color-interpolation-filters="sRGB">
<feFlood flood-opacity="0" result="BackgroundImageFix"/>
<feGaussianBlur in="BackgroundImageFix" stdDeviation="6.92831"/>
<feComposite in2="SourceAlpha" operator="in" result="effect1_backgroundBlur_1333_1167"/>
<feBlend mode="normal" in="SourceGraphic" in2="effect1_backgroundBlur_1333_1167" result="shape"/>
</filter>
<linearGradient id="paint0_linear_1333_1167" x1="7.5" y1="13.2812" x2="23.9603" y2="23.0929" gradientUnits="userSpaceOnUse">
<stop stop-color="#917FFB"/>
<stop offset="1" stop-color="#3F2DAF"/>
</linearGradient>
<linearGradient id="paint1_linear_1333_1167" x1="6" y1="2.625" x2="12.7266" y2="13.6725" gradientUnits="userSpaceOnUse">
<stop stop-color="white"/>
<stop offset="0.99715" stop-color="white" stop-opacity="0"/>
</linearGradient>
<linearGradient id="paint2_linear_1333_1167" x1="3.0783" y1="17.1559" x2="25.5004" y2="27.8511" gradientUnits="userSpaceOnUse">
<stop stop-color="white"/>
<stop offset="1" stop-color="white" stop-opacity="0"/>
</linearGradient>
</defs>
</svg>
