<svg width="484" height="534" viewBox="0 0 484 534" fill="none" xmlns="http://www.w3.org/2000/svg">
<path d="M233.333 66.6667C104.667 66.6667 0 171.333 0 300C0 428.667 104.667 533.333 233.333 533.333C362 533.333 466.667 428.667 466.667 300C466.667 171.333 362 66.6667 233.333 66.6667ZM233.333 483.333C132.333 483.333 50 401 50 300C50 199 132.333 116.667 233.333 116.667C334.333 116.667 416.667 199 416.667 300C416.667 401 334.333 483.333 233.333 483.333ZM125 25C125 11.3333 136.333 0 150 0H316.667C330.333 0 341.667 11.3333 341.667 25C341.667 38.6667 330.333 50 316.667 50H150C136.333 50 125 38.6667 125 25ZM258.333 200V300C258.333 313.667 247 325 233.333 325C219.667 325 208.333 313.667 208.333 300V200C208.333 186.333 219.667 175 233.333 175C247 175 258.333 186.333 258.333 200ZM476.333 142.333C471.333 147.333 465 149.667 458.667 149.667C452.333 149.667 446 147.333 441 142.333L391 92.3333C381.333 82.6667 381.333 66.6667 391 57C400.667 47.3333 416.667 47.3333 426.333 57L476.333 107C486 116.667 486 132.667 476.333 142.333Z" fill="#9933FF"/>
</svg>
