<svg width="800" height="800" viewBox="0 0 800 800" fill="none" xmlns="http://www.w3.org/2000/svg">
<path d="M766.667 333.333H763.333C748 257.333 680.667 200 600 200C555.667 200 515.667 217.333 485.667 245.333C459.333 237.667 430.333 233.333 400 233.333C369.667 233.333 340.667 237.333 314.333 245.333C284.333 217.333 244.333 200 200 200C119.333 200 52 257.333 36.6667 333.333H33.3333C15 333.333 0 348.333 0 366.667C0 385 15 400 33.3333 400H36.6667C52 476 119.333 533.333 200 533.333C292 533.333 366.667 458.667 366.667 366.667C366.667 344.667 362.333 323.667 354.667 304.333C369 301.667 384 300 400 300C416 300 431.333 301.333 445.333 304.333C437.667 323.667 433.333 344.667 433.333 366.667C433.333 458.667 508 533.333 600 533.333C680.667 533.333 748 476 763.333 400H766.667C785 400 800 385 800 366.667C800 348.333 785 333.333 766.667 333.333ZM200 466.667C145 466.667 100 421.667 100 366.667C100 311.667 145 266.667 200 266.667C255 266.667 300 311.667 300 366.667C300 421.667 255 466.667 200 466.667ZM600 466.667C545 466.667 500 421.667 500 366.667C500 311.667 545 266.667 600 266.667C655 266.667 700 311.667 700 366.667C700 421.667 655 466.667 600 466.667Z" fill="#8015EA"/>
</svg>
