<svg width="800" height="800" viewBox="0 0 800 800" fill="none" xmlns="http://www.w3.org/2000/svg">
<g clip-path="url(#clip0_2744_1214)">
<path d="M766.668 366.667H763.335C749.001 295 688.001 239.667 613.335 234L790.335 57C803.335 44 803.335 22.6667 790.335 9.66669C777.335 -3.33331 756.001 -3.33331 743.001 9.66669L476.335 276.333C452.668 270 427.001 266.667 400.001 266.667C369.668 266.667 340.668 270.667 314.335 278.667C284.335 250.667 244.335 233.333 200.001 233.333C119.335 233.333 52.0013 290.667 36.668 366.667H33.3346C15.0013 366.667 0.001302 381.667 0.001302 400C0.001302 418.333 15.0013 433.333 33.3346 433.333H36.668C51.0013 505 112.001 560.333 186.668 566L9.66797 743C-3.33203 756 -3.33203 777.333 9.66797 790.333C16.3346 796.667 24.668 800 33.3346 800C42.0013 800 50.3346 796.667 57.0013 790.333L434.001 413.333C440.668 499 512.668 566.667 600.001 566.667C680.668 566.667 748.001 509.333 763.335 433.333H766.668C785.001 433.333 800.001 418.333 800.001 400C800.001 381.667 785.001 366.667 766.668 366.667ZM100.001 400C100.001 345 145.001 300 200.001 300C255.001 300 300.001 345 300.001 400C300.001 455 255.001 500 200.001 500C145.001 500 100.001 455 100.001 400ZM366.001 386.667C364.668 369.333 360.668 353 354.668 337.667C369.001 335 384.001 333.333 400.001 333.333C406.335 333.333 412.668 333.667 418.668 334L366.001 386.667ZM600.001 500C545.001 500 500.001 455 500.001 400C500.001 345 545.001 300 600.001 300C655.001 300 700.001 345 700.001 400C700.001 455 655.001 500 600.001 500Z" fill="#8015EA"/>
</g>
<defs>
<clipPath id="clip0_2744_1214">
<rect width="800" height="800" fill="white"/>
</clipPath>
</defs>
</svg>
